G04 #@! TF.GenerationSoftware,KiCad,Pcbnew,8.0.0~rc2-1e5b68cb87~176~ubuntu22.04.1*
G04 #@! TF.CreationDate,2024-06-10T16:32:28+02:00*
G04 #@! TF.ProjectId,prova_fpga,70726f76-615f-4667-9067-612e6b696361,rev?*
G04 #@! TF.SameCoordinates,Original*
G04 #@! TF.FileFunction,Paste,Top*
G04 #@! TF.FilePolarity,Positive*
%FSLAX46Y46*%
G04 Gerber Fmt 4.6, Leading zero omitted, Abs format (unit mm)*
G04 Created by KiCad (PCBNEW 8.0.0~rc2-1e5b68cb87~176~ubuntu22.04.1) date 2024-06-10 16:32:28*
%MOMM*%
%LPD*%
G01*
G04 APERTURE LIST*
G04 Aperture macros list*
%AMRoundRect*
0 Rectangle with rounded corners*
0 $1 Rounding radius*
0 $2 $3 $4 $5 $6 $7 $8 $9 X,Y pos of 4 corners*
0 Add a 4 corners polygon primitive as box body*
4,1,4,$2,$3,$4,$5,$6,$7,$8,$9,$2,$3,0*
0 Add four circle primitives for the rounded corners*
1,1,$1+$1,$2,$3*
1,1,$1+$1,$4,$5*
1,1,$1+$1,$6,$7*
1,1,$1+$1,$8,$9*
0 Add four rect primitives between the rounded corners*
20,1,$1+$1,$2,$3,$4,$5,0*
20,1,$1+$1,$4,$5,$6,$7,0*
20,1,$1+$1,$6,$7,$8,$9,0*
20,1,$1+$1,$8,$9,$2,$3,0*%
%AMFreePoly0*
4,1,6,0.325041,0.072014,0.087937,-0.165085,-0.125052,-0.165088,-0.125109,0.135050,0.325086,0.135050,0.325041,0.072014,0.325041,0.072014,$1*%
%AMFreePoly1*
4,1,6,0.087937,0.165085,0.325041,-0.072014,0.325086,-0.135050,-0.125109,-0.135050,-0.125052,0.165088,0.087937,0.165085,0.087937,0.165085,$1*%
%AMFreePoly2*
4,1,6,0.125109,-0.135050,-0.325086,-0.135050,-0.325041,-0.072014,-0.087937,0.165085,0.125052,0.165088,0.125109,-0.135050,0.125109,-0.135050,$1*%
%AMFreePoly3*
4,1,23,-0.298000,0.521700,0.269100,0.521700,0.269100,-0.521700,-0.776100,-0.521700,-0.776100,-0.378300,-0.299000,-0.378300,-0.277858,-0.369542,-0.269100,-0.348400,-0.269100,-0.101601,-0.277858,-0.080459,-0.299000,-0.071701,-0.776100,-0.071701,-0.776100,0.071699,-0.299000,0.071699,-0.277858,0.080457,-0.269100,0.101599,-0.269100,0.348401,-0.277858,0.369543,-0.299000,0.378301,-0.776100,0.378301,
-0.776100,0.521701,-0.298002,0.521701,-0.298000,0.521700,-0.298000,0.521700,$1*%
%AMFreePoly4*
4,1,21,0.776100,0.378300,0.299000,0.378300,0.277858,0.369542,0.269100,0.348400,0.269100,0.101600,0.277858,0.080458,0.299000,0.071700,0.776100,0.071700,0.776100,-0.071700,0.299000,-0.071700,0.277858,-0.080458,0.269100,-0.101600,0.269100,-0.348400,0.277858,-0.369542,0.299000,-0.378300,0.776100,-0.378300,0.776100,-0.521700,-0.269100,-0.521700,-0.269100,0.521700,0.776100,0.521700,
0.776100,0.378300,0.776100,0.378300,$1*%
%AMFreePoly5*
4,1,21,0.227502,0.490679,0.227502,-0.190680,0.190682,-0.227500,-0.490679,-0.227500,-0.527499,-0.190680,-0.527499,-0.059320,-0.490679,-0.022500,-0.299999,-0.022500,-0.284089,-0.015910,-0.234090,0.034089,-0.227500,0.049999,-0.227500,0.190679,-0.190680,0.227499,-0.050000,0.227499,-0.034090,0.234089,0.015910,0.284089,0.022500,0.299999,0.022500,0.490678,0.059320,0.527498,0.190681,0.527498,
0.227502,0.490679,0.227502,0.490679,$1*%
%AMFreePoly6*
4,1,22,0.227499,0.190681,0.227501,-0.490679,0.190681,-0.527498,0.059320,-0.527498,0.022500,-0.490678,0.022502,-0.299999,0.015912,-0.284089,-0.034090,-0.234089,-0.050000,-0.227499,-0.190680,-0.227499,-0.227499,-0.190679,-0.227497,-0.049999,-0.234087,-0.034089,-0.234088,-0.034089,-0.284090,0.015910,-0.299999,0.022500,-0.490679,0.022500,-0.527499,0.059320,-0.527499,0.190680,-0.490679,0.227500,
0.190683,0.227500,0.227499,0.190681,0.227499,0.190681,$1*%
%AMFreePoly7*
4,1,22,0.490680,0.227500,0.527501,0.190680,0.527501,0.059320,0.490681,0.022500,0.300001,0.022500,0.284092,0.015910,0.234090,-0.034089,0.227499,-0.049998,0.227499,-0.049999,0.227501,-0.190679,0.190682,-0.227499,0.050002,-0.227499,0.034092,-0.234089,-0.015910,-0.284089,-0.022500,-0.299999,-0.022498,-0.490678,-0.059318,-0.527498,-0.190680,-0.527498,-0.227500,-0.490678,-0.227500,0.190682,
-0.190680,0.227501,0.490680,0.227500,0.490680,0.227500,$1*%
%AMFreePoly8*
4,1,22,-0.022498,0.490681,-0.022500,0.300002,-0.015910,0.284092,0.034092,0.234092,0.050002,0.227502,0.190682,0.227502,0.227501,0.190682,0.227499,0.050002,0.234089,0.034092,0.234090,0.034092,0.284092,-0.015907,0.300001,-0.022497,0.490681,-0.022497,0.527501,-0.059317,0.527501,-0.190677,0.490680,-0.227497,-0.190679,-0.227498,-0.227500,-0.190677,-0.227500,0.490681,-0.190680,0.527501,
-0.059318,0.527501,-0.022498,0.490681,-0.022498,0.490681,$1*%
G04 Aperture macros list end*
%ADD10C,0.000000*%
%ADD11RoundRect,0.250000X-0.250000X-0.650000X0.250000X-0.650000X0.250000X0.650000X-0.250000X0.650000X0*%
%ADD12RoundRect,0.135000X-0.135000X-0.185000X0.135000X-0.185000X0.135000X0.185000X-0.135000X0.185000X0*%
%ADD13RoundRect,0.135000X-0.226274X-0.035355X-0.035355X-0.226274X0.226274X0.035355X0.035355X0.226274X0*%
%ADD14RoundRect,0.135000X0.135000X0.185000X-0.135000X0.185000X-0.135000X-0.185000X0.135000X-0.185000X0*%
%ADD15RoundRect,0.140000X0.140000X0.170000X-0.140000X0.170000X-0.140000X-0.170000X0.140000X-0.170000X0*%
%ADD16RoundRect,0.140000X-0.140000X-0.170000X0.140000X-0.170000X0.140000X0.170000X-0.140000X0.170000X0*%
%ADD17RoundRect,0.250000X-0.650000X0.325000X-0.650000X-0.325000X0.650000X-0.325000X0.650000X0.325000X0*%
%ADD18RoundRect,0.250000X-0.475000X0.250000X-0.475000X-0.250000X0.475000X-0.250000X0.475000X0.250000X0*%
%ADD19C,2.700000*%
%ADD20RoundRect,0.140000X0.170000X-0.140000X0.170000X0.140000X-0.170000X0.140000X-0.170000X-0.140000X0*%
%ADD21RoundRect,0.135000X-0.185000X0.135000X-0.185000X-0.135000X0.185000X-0.135000X0.185000X0.135000X0*%
%ADD22RoundRect,0.079500X0.100500X-0.079500X0.100500X0.079500X-0.100500X0.079500X-0.100500X-0.079500X0*%
%ADD23RoundRect,0.079500X-0.079500X-0.100500X0.079500X-0.100500X0.079500X0.100500X-0.079500X0.100500X0*%
%ADD24RoundRect,0.079500X0.079500X0.100500X-0.079500X0.100500X-0.079500X-0.100500X0.079500X-0.100500X0*%
%ADD25RoundRect,0.250000X-0.435000X-0.615000X0.435000X-0.615000X0.435000X0.615000X-0.435000X0.615000X0*%
%ADD26RoundRect,0.125000X-0.200000X-0.125000X0.200000X-0.125000X0.200000X0.125000X-0.200000X0.125000X0*%
%ADD27R,0.182880X0.640080*%
%ADD28R,0.640080X0.182880*%
%ADD29FreePoly0,180.000000*%
%ADD30FreePoly1,180.000000*%
%ADD31FreePoly2,180.000000*%
%ADD32FreePoly1,0.000000*%
%ADD33RoundRect,0.024300X0.000000X0.309289X-0.309289X0.000000X0.000000X-0.309289X0.309289X0.000000X0*%
%ADD34RoundRect,0.045864X0.317735X-0.068796X0.317735X0.068796X-0.317735X0.068796X-0.317735X-0.068796X0*%
%ADD35RoundRect,0.045864X-0.068796X-0.317735X0.068796X-0.317735X0.068796X0.317735X-0.068796X0.317735X0*%
%ADD36RoundRect,0.218750X-0.218750X-0.256250X0.218750X-0.256250X0.218750X0.256250X-0.218750X0.256250X0*%
%ADD37R,0.182880X0.731520*%
%ADD38FreePoly3,90.000000*%
%ADD39FreePoly4,90.000000*%
%ADD40R,0.982980X0.228600*%
%ADD41R,0.457200X0.228600*%
%ADD42RoundRect,0.135000X0.185000X-0.135000X0.185000X0.135000X-0.185000X0.135000X-0.185000X-0.135000X0*%
%ADD43RoundRect,0.250000X0.325000X0.650000X-0.325000X0.650000X-0.325000X-0.650000X0.325000X-0.650000X0*%
%ADD44C,0.300000*%
%ADD45RoundRect,0.250000X0.250000X0.475000X-0.250000X0.475000X-0.250000X-0.475000X0.250000X-0.475000X0*%
%ADD46RoundRect,0.147500X0.172500X-0.147500X0.172500X0.147500X-0.172500X0.147500X-0.172500X-0.147500X0*%
%ADD47R,0.225000X0.540000*%
%ADD48R,0.225000X0.810000*%
%ADD49R,0.405000X0.225000*%
%ADD50RoundRect,0.250000X-0.250000X-0.475000X0.250000X-0.475000X0.250000X0.475000X-0.250000X0.475000X0*%
%ADD51R,0.434340X0.228600*%
%ADD52R,0.228600X0.434340*%
%ADD53RoundRect,0.147500X-0.172500X0.147500X-0.172500X-0.147500X0.172500X-0.147500X0.172500X0.147500X0*%
%ADD54RoundRect,0.079500X-0.100500X0.079500X-0.100500X-0.079500X0.100500X-0.079500X0.100500X0.079500X0*%
%ADD55RoundRect,0.140000X-0.170000X0.140000X-0.170000X-0.140000X0.170000X-0.140000X0.170000X0.140000X0*%
%ADD56R,0.800000X0.600000*%
%ADD57C,0.286400*%
%ADD58FreePoly5,0.000000*%
%ADD59R,0.630001X0.224999*%
%ADD60FreePoly6,0.000000*%
%ADD61R,0.224999X0.630001*%
%ADD62FreePoly7,0.000000*%
%ADD63FreePoly8,0.000000*%
%ADD64R,1.279999X1.439999*%
G04 APERTURE END LIST*
D10*
G36*
X144610000Y-100130000D02*
G01*
X143210000Y-100130000D01*
X143210000Y-98730000D01*
X144610000Y-98730000D01*
X144610000Y-100130000D01*
G37*
G36*
X144610000Y-101830000D02*
G01*
X143210000Y-101830000D01*
X143210000Y-100430000D01*
X144610000Y-100430000D01*
X144610000Y-101830000D01*
G37*
G36*
X146310000Y-100130000D02*
G01*
X144910000Y-100130000D01*
X144910000Y-98730000D01*
X146310000Y-98730000D01*
X146310000Y-100130000D01*
G37*
G36*
X146310000Y-101830000D02*
G01*
X144910000Y-101830000D01*
X144910000Y-100430000D01*
X146310000Y-100430000D01*
X146310000Y-101830000D01*
G37*
G36*
X118452000Y-93750000D02*
G01*
X118452000Y-93750000D01*
G75*
G02*
X118602000Y-93900000I0J-150000D01*
G01*
X118602000Y-95100000D01*
G75*
G02*
X118452000Y-95250000I-150000J0D01*
G01*
X117252000Y-95250000D01*
G75*
G02*
X117102000Y-95100000I0J150000D01*
G01*
X117102000Y-93900000D01*
G75*
G02*
X117252000Y-93750000I150000J0D01*
G01*
X118452000Y-93750000D01*
G37*
G36*
X118452000Y-95450000D02*
G01*
X118452000Y-95450000D01*
G75*
G02*
X118602000Y-95600000I0J-150000D01*
G01*
X118602000Y-96800000D01*
G75*
G02*
X118452000Y-96950000I-150000J0D01*
G01*
X117252000Y-96950000D01*
G75*
G02*
X117102000Y-96800000I0J150000D01*
G01*
X117102000Y-95600000D01*
G75*
G02*
X117252000Y-95450000I150000J0D01*
G01*
X118452000Y-95450000D01*
G37*
G36*
X118452000Y-97150000D02*
G01*
X118452000Y-97150000D01*
G75*
G02*
X118602000Y-97300000I0J-150000D01*
G01*
X118602000Y-98500000D01*
G75*
G02*
X118452000Y-98650000I-150000J0D01*
G01*
X117252000Y-98650000D01*
G75*
G02*
X117102000Y-98500000I0J150000D01*
G01*
X117102000Y-97300000D01*
G75*
G02*
X117252000Y-97150000I150000J0D01*
G01*
X118452000Y-97150000D01*
G37*
G36*
X120152000Y-93750000D02*
G01*
X120152000Y-93750000D01*
G75*
G02*
X120302000Y-93900000I0J-150000D01*
G01*
X120302000Y-95100000D01*
G75*
G02*
X120152000Y-95250000I-150000J0D01*
G01*
X118952000Y-95250000D01*
G75*
G02*
X118802000Y-95100000I0J150000D01*
G01*
X118802000Y-93900000D01*
G75*
G02*
X118952000Y-93750000I150000J0D01*
G01*
X120152000Y-93750000D01*
G37*
G36*
X120152000Y-95450000D02*
G01*
X120152000Y-95450000D01*
G75*
G02*
X120302000Y-95600000I0J-150000D01*
G01*
X120302000Y-96800000D01*
G75*
G02*
X120152000Y-96950000I-150000J0D01*
G01*
X118952000Y-96950000D01*
G75*
G02*
X118802000Y-96800000I0J150000D01*
G01*
X118802000Y-95600000D01*
G75*
G02*
X118952000Y-95450000I150000J0D01*
G01*
X120152000Y-95450000D01*
G37*
G36*
X120152000Y-97150000D02*
G01*
X120152000Y-97150000D01*
G75*
G02*
X120302000Y-97300000I0J-150000D01*
G01*
X120302000Y-98500000D01*
G75*
G02*
X120152000Y-98650000I-150000J0D01*
G01*
X118952000Y-98650000D01*
G75*
G02*
X118802000Y-98500000I0J150000D01*
G01*
X118802000Y-97300000D01*
G75*
G02*
X118952000Y-97150000I150000J0D01*
G01*
X120152000Y-97150000D01*
G37*
G36*
X121852000Y-93750000D02*
G01*
X121852000Y-93750000D01*
G75*
G02*
X122002000Y-93900000I0J-150000D01*
G01*
X122002000Y-95100000D01*
G75*
G02*
X121852000Y-95250000I-150000J0D01*
G01*
X120652000Y-95250000D01*
G75*
G02*
X120502000Y-95100000I0J150000D01*
G01*
X120502000Y-93900000D01*
G75*
G02*
X120652000Y-93750000I150000J0D01*
G01*
X121852000Y-93750000D01*
G37*
G36*
X121852000Y-95450000D02*
G01*
X121852000Y-95450000D01*
G75*
G02*
X122002000Y-95600000I0J-150000D01*
G01*
X122002000Y-96800000D01*
G75*
G02*
X121852000Y-96950000I-150000J0D01*
G01*
X120652000Y-96950000D01*
G75*
G02*
X120502000Y-96800000I0J150000D01*
G01*
X120502000Y-95600000D01*
G75*
G02*
X120652000Y-95450000I150000J0D01*
G01*
X121852000Y-95450000D01*
G37*
G36*
X121852000Y-97150000D02*
G01*
X121852000Y-97150000D01*
G75*
G02*
X122002000Y-97300000I0J-150000D01*
G01*
X122002000Y-98500000D01*
G75*
G02*
X121852000Y-98650000I-150000J0D01*
G01*
X120652000Y-98650000D01*
G75*
G02*
X120502000Y-98500000I0J150000D01*
G01*
X120502000Y-97300000D01*
G75*
G02*
X120652000Y-97150000I150000J0D01*
G01*
X121852000Y-97150000D01*
G37*
G36*
X120876601Y-128850000D02*
G01*
X119773400Y-128850000D01*
X119773400Y-128252000D01*
X120876601Y-128252000D01*
X120876601Y-128850000D01*
G37*
G36*
X120876601Y-130348000D02*
G01*
X119773400Y-130348000D01*
X119773400Y-129750000D01*
X120876601Y-129750000D01*
X120876601Y-130348000D01*
G37*
G36*
X109627498Y-120932502D02*
G01*
X109627501Y-121632501D01*
X109577499Y-121682500D01*
X109427499Y-121682500D01*
X109377499Y-121632501D01*
X109377501Y-121432501D01*
X109327499Y-121382501D01*
X109177499Y-121382501D01*
X109127499Y-121332501D01*
X109127502Y-121182501D01*
X109077500Y-121132502D01*
X108877500Y-121132502D01*
X108827500Y-121082502D01*
X108827500Y-120932502D01*
X108877500Y-120882502D01*
X109577501Y-120882502D01*
X109627498Y-120932502D01*
G37*
G36*
X112127501Y-117382501D02*
G01*
X112127499Y-117582501D01*
X112177501Y-117632501D01*
X112327501Y-117632501D01*
X112377501Y-117682501D01*
X112377498Y-117832501D01*
X112427500Y-117882500D01*
X112627500Y-117882500D01*
X112677500Y-117932500D01*
X112677500Y-118082500D01*
X112627500Y-118132500D01*
X111927499Y-118132502D01*
X111877499Y-118082500D01*
X111877499Y-117382501D01*
X111927499Y-117332502D01*
X112077501Y-117332502D01*
X112127501Y-117382501D01*
G37*
D11*
X149060000Y-103660000D03*
X150660000Y-103660000D03*
D12*
X117265000Y-102850000D03*
X118285000Y-102850000D03*
X153865000Y-126100000D03*
X154885000Y-126100000D03*
D13*
X131669376Y-103499376D03*
X132390624Y-104220624D03*
D14*
X125510000Y-96100000D03*
X124490000Y-96100000D03*
X129920000Y-113299999D03*
X128900000Y-113299999D03*
D15*
X124330000Y-108750000D03*
X123370000Y-108750000D03*
D16*
X147070000Y-104700000D03*
X148030000Y-104700000D03*
D17*
X113610000Y-124355000D03*
X113610000Y-127305000D03*
D18*
X116275002Y-128200000D03*
X116275002Y-130100000D03*
D19*
X110500000Y-94000000D03*
D20*
X108620000Y-98925000D03*
X108620000Y-97965000D03*
D16*
X147070000Y-103725000D03*
X148030000Y-103725000D03*
D21*
X150500000Y-130340000D03*
X150500000Y-131360000D03*
D22*
X124100000Y-94070000D03*
X124100000Y-93380000D03*
D20*
X148010000Y-98130000D03*
X148010000Y-97170000D03*
X149100000Y-101580000D03*
X149100000Y-100620000D03*
D16*
X149845000Y-95375000D03*
X150805000Y-95375000D03*
D14*
X145210000Y-104800000D03*
X144190000Y-104800000D03*
D12*
X127965000Y-104400000D03*
X128985000Y-104400000D03*
X120510000Y-125190000D03*
X121530000Y-125190000D03*
D15*
X156710000Y-110190000D03*
X155750000Y-110190000D03*
D23*
X118445000Y-115850000D03*
X119135000Y-115850000D03*
X123155000Y-100300000D03*
X123845000Y-100300000D03*
D24*
X116735000Y-124970000D03*
X116045000Y-124970000D03*
D25*
X122325000Y-102925000D03*
X122325000Y-105075000D03*
X124025000Y-102925000D03*
X124025000Y-105075000D03*
D26*
X119425000Y-102095000D03*
X119425000Y-103365000D03*
X119425000Y-104635000D03*
X119425000Y-105905000D03*
X126925000Y-105905000D03*
X126925000Y-104635000D03*
X126925000Y-103365000D03*
X126925000Y-102095000D03*
D27*
X146559999Y-97930500D03*
X146160000Y-97930500D03*
X145760001Y-97930500D03*
X145359999Y-97930500D03*
X144960000Y-97930500D03*
X144560000Y-97930500D03*
X144160001Y-97930500D03*
X143759999Y-97930500D03*
X143360000Y-97930500D03*
X142960001Y-97930500D03*
D28*
X142410500Y-98480001D03*
X142410500Y-98880000D03*
X142410500Y-99279999D03*
X142410500Y-99680001D03*
X142410500Y-100080000D03*
X142410500Y-100480000D03*
X142410500Y-100879999D03*
X142410500Y-101280001D03*
X142410500Y-101680000D03*
X142410500Y-102079999D03*
D27*
X142960001Y-102629500D03*
X143360000Y-102629500D03*
X143759999Y-102629500D03*
X144160001Y-102629500D03*
X144560000Y-102629500D03*
X144960000Y-102629500D03*
X145359999Y-102629500D03*
X145760001Y-102629500D03*
X146160000Y-102629500D03*
X146559999Y-102629500D03*
D28*
X147109500Y-102079999D03*
X147109500Y-101680000D03*
X147109500Y-101280001D03*
X147109500Y-100879999D03*
X147109500Y-100480000D03*
X147109500Y-100080000D03*
X147109500Y-99680001D03*
X147109500Y-99279999D03*
X147109500Y-98880000D03*
X147109500Y-98480001D03*
D14*
X129920000Y-114299999D03*
X128900000Y-114299999D03*
D21*
X150200000Y-97990000D03*
X150200000Y-99010000D03*
D16*
X147745000Y-129250000D03*
X148705000Y-129250000D03*
D15*
X120080000Y-126600000D03*
X119120000Y-126600000D03*
D29*
X110640000Y-98790000D03*
D30*
X110640000Y-98140000D03*
D31*
X109580000Y-98140000D03*
D32*
X109580000Y-98790000D03*
D33*
X110110000Y-98465000D03*
D19*
X154500000Y-94000000D03*
D12*
X113290000Y-98150000D03*
X114310000Y-98150000D03*
X117265000Y-101900000D03*
X118285000Y-101900000D03*
D14*
X117965001Y-132150000D03*
X116945001Y-132150000D03*
D34*
X116100000Y-93450000D03*
X116100000Y-93949999D03*
X116100000Y-94450001D03*
X116100000Y-94950000D03*
X116100000Y-95449999D03*
X116100000Y-95950000D03*
X116100000Y-96450000D03*
X116100000Y-96950001D03*
X116100000Y-97450000D03*
X116100000Y-97949999D03*
X116100000Y-98450001D03*
X116100000Y-98950000D03*
D35*
X116802000Y-99652000D03*
X117301999Y-99652000D03*
X117802001Y-99652000D03*
X118302000Y-99652000D03*
X118801999Y-99652000D03*
X119302000Y-99652000D03*
X119802000Y-99652000D03*
X120302001Y-99652000D03*
X120802000Y-99652000D03*
X121301999Y-99652000D03*
X121802001Y-99652000D03*
X122302000Y-99652000D03*
D34*
X123004000Y-98950000D03*
X123004000Y-98450001D03*
X123004000Y-97949999D03*
X123004000Y-97450000D03*
X123004000Y-96950001D03*
X123004000Y-96450000D03*
X123004000Y-95950000D03*
X123004000Y-95449999D03*
X123004000Y-94950000D03*
X123004000Y-94450001D03*
X123004000Y-93949999D03*
X123004000Y-93450000D03*
D35*
X122302000Y-92748000D03*
X121802001Y-92748000D03*
X121301999Y-92748000D03*
X120802000Y-92748000D03*
X120302001Y-92748000D03*
X119802000Y-92748000D03*
X119302000Y-92748000D03*
X118801999Y-92748000D03*
X118302000Y-92748000D03*
X117802001Y-92748000D03*
X117301999Y-92748000D03*
X116802000Y-92748000D03*
D36*
X154012500Y-124475000D03*
X155587500Y-124475000D03*
D12*
X138500000Y-99900000D03*
X139520000Y-99900000D03*
D37*
X118075001Y-130450000D03*
X118525000Y-130450000D03*
X118975002Y-130450000D03*
X119425001Y-130450000D03*
D38*
X120325001Y-130050000D03*
D39*
X120325001Y-128550000D03*
D37*
X119425001Y-128150000D03*
X118975002Y-128150000D03*
X118525000Y-128150000D03*
X118075001Y-128150000D03*
D40*
X117925001Y-129050000D03*
X117925001Y-129550000D03*
D41*
X119200000Y-129550000D03*
X119200000Y-129050000D03*
D18*
X122475002Y-128293300D03*
X122475002Y-130193300D03*
D42*
X108350000Y-112060000D03*
X108350000Y-111040000D03*
D43*
X111665000Y-125370000D03*
X108715000Y-125370000D03*
D20*
X114700000Y-93130000D03*
X114700000Y-92170000D03*
D44*
X127989998Y-117199999D03*
X127989998Y-117999999D03*
X127989998Y-118799999D03*
X127989998Y-121999999D03*
X127989998Y-122799999D03*
X127989998Y-123599999D03*
X127189998Y-117199999D03*
X127189998Y-117999999D03*
X127189998Y-118799999D03*
X127189998Y-121999999D03*
X127189998Y-122799999D03*
X127189998Y-123599999D03*
X126389998Y-117199999D03*
X126389998Y-117999999D03*
X126389998Y-118799999D03*
X126389998Y-121999999D03*
X126389998Y-122799999D03*
X126389998Y-123599999D03*
X125589998Y-117199999D03*
X125589998Y-117999999D03*
X125589998Y-118799999D03*
X125589998Y-121999999D03*
X125589998Y-122799999D03*
X125589998Y-123599999D03*
X124789998Y-117199999D03*
X124789998Y-117999999D03*
X124789998Y-118799999D03*
X124789998Y-121999999D03*
X124789998Y-122799999D03*
X124789998Y-123599999D03*
X123989998Y-117199999D03*
X123989998Y-117999999D03*
X123989998Y-118799999D03*
X123989998Y-121999999D03*
X123989998Y-122799999D03*
X123989998Y-123599999D03*
X123189998Y-117199999D03*
X123189998Y-117999999D03*
X123189998Y-118799999D03*
X123189998Y-121999999D03*
X123189998Y-122799999D03*
X123189998Y-123599999D03*
X122389998Y-117199999D03*
X122389998Y-117999999D03*
X122389998Y-118799999D03*
X122389998Y-121999999D03*
X122389998Y-122799999D03*
X122389998Y-123599999D03*
X121589998Y-117199999D03*
X121589998Y-117999999D03*
X121589998Y-118799999D03*
X121589998Y-121999999D03*
X121589998Y-122799999D03*
X121589998Y-123599999D03*
X120789998Y-117199999D03*
X120789998Y-117999999D03*
X120789998Y-118799999D03*
X120789998Y-121999999D03*
X120789998Y-122799999D03*
X120789998Y-123599999D03*
X119989998Y-117199999D03*
X119989998Y-117999999D03*
X119989998Y-118799999D03*
X119989998Y-121999999D03*
X119989998Y-122799999D03*
X119989998Y-123599999D03*
X119189998Y-117199999D03*
X119189998Y-117999999D03*
X119189998Y-118799999D03*
X119189998Y-121999999D03*
X119189998Y-122799999D03*
X119189998Y-123599999D03*
X118389998Y-117199999D03*
X118389998Y-117999999D03*
X118389998Y-118799999D03*
X118389998Y-121999999D03*
X118389998Y-122799999D03*
X118389998Y-123599999D03*
X117589998Y-117199999D03*
X117589998Y-117999999D03*
X117589998Y-118799999D03*
X117589998Y-121999999D03*
X117589998Y-122799999D03*
X117589998Y-123599999D03*
X116789998Y-117199999D03*
X116789998Y-117999999D03*
X116789998Y-118799999D03*
X116789998Y-121999999D03*
X116789998Y-122799999D03*
X116789998Y-123599999D03*
X115989998Y-117199999D03*
X115989998Y-117999999D03*
X115989998Y-118799999D03*
X115989998Y-121999999D03*
X115989998Y-122799999D03*
X115989998Y-123599999D03*
D45*
X111550000Y-100470000D03*
X109650000Y-100470000D03*
D19*
X110500000Y-130000000D03*
D17*
X124700000Y-127300000D03*
X124700000Y-130250000D03*
D21*
X116110000Y-105020000D03*
X116110000Y-106040000D03*
D14*
X115160000Y-101300000D03*
X114140000Y-101300000D03*
D19*
X154500000Y-130000000D03*
D16*
X134595000Y-94500000D03*
X135555000Y-94500000D03*
D24*
X121345000Y-110380000D03*
X120655000Y-110380000D03*
D22*
X115350000Y-107975000D03*
X115350000Y-107285000D03*
D45*
X111550000Y-105390000D03*
X109650000Y-105390000D03*
D23*
X116894998Y-115850000D03*
X117584998Y-115850000D03*
D20*
X126860000Y-99030000D03*
X126860000Y-98070000D03*
D21*
X137380000Y-97890000D03*
X137380000Y-98910000D03*
D46*
X155100000Y-98885000D03*
X155100000Y-97915000D03*
D12*
X113290000Y-96100000D03*
X114310000Y-96100000D03*
D20*
X150250000Y-101630000D03*
X150250000Y-100670000D03*
D15*
X117990000Y-105960000D03*
X117030000Y-105960000D03*
D12*
X120980000Y-132150000D03*
X122000000Y-132150000D03*
D45*
X111550000Y-108170000D03*
X109650000Y-108170000D03*
D14*
X119860000Y-132150000D03*
X118840000Y-132150000D03*
D42*
X108350000Y-110185000D03*
X108350000Y-109165000D03*
D14*
X125200000Y-99290000D03*
X124180000Y-99290000D03*
D47*
X110820000Y-102060000D03*
D48*
X110320000Y-102210000D03*
D49*
X109645000Y-101910000D03*
X109645000Y-102410000D03*
X109645000Y-102910000D03*
X109645000Y-103410000D03*
X109645000Y-103910000D03*
D48*
X110320000Y-103610000D03*
X110820000Y-103610000D03*
D49*
X111495000Y-103910000D03*
X111495000Y-103410000D03*
X111495000Y-102910000D03*
X111495000Y-102410000D03*
X111495000Y-101910000D03*
D47*
X110925000Y-109795000D03*
D48*
X110425000Y-109945000D03*
D49*
X109750000Y-109645000D03*
X109750000Y-110145000D03*
X109750000Y-110645000D03*
X109750000Y-111145000D03*
X109750000Y-111645000D03*
D48*
X110425000Y-111345000D03*
X110925000Y-111345000D03*
D49*
X111600000Y-111645000D03*
X111600000Y-111145000D03*
X111600000Y-110645000D03*
X111600000Y-110145000D03*
X111600000Y-109645000D03*
D45*
X156150000Y-122300000D03*
X154250000Y-122300000D03*
D14*
X129920000Y-110260000D03*
X128900000Y-110260000D03*
D23*
X138455000Y-92950000D03*
X139145000Y-92950000D03*
D50*
X109640000Y-116032503D03*
X111540000Y-116032503D03*
D42*
X108250000Y-104420000D03*
X108250000Y-103400000D03*
D51*
X148094300Y-126449999D03*
X148094300Y-126950000D03*
X148094300Y-127450000D03*
X148094300Y-127950001D03*
D52*
X148750001Y-128114400D03*
X149250000Y-128114400D03*
X149749999Y-128114400D03*
D51*
X150405700Y-127950001D03*
X150405700Y-127450000D03*
X150405700Y-126950000D03*
X150405700Y-126449999D03*
D52*
X149749999Y-126285600D03*
X149250000Y-126285600D03*
X148750001Y-126285600D03*
D14*
X130050000Y-108860000D03*
X129030000Y-108860000D03*
D20*
X131000000Y-128930000D03*
X131000000Y-127970000D03*
D24*
X118325000Y-124970000D03*
X117635000Y-124970000D03*
D50*
X153750000Y-101400000D03*
X155650000Y-101400000D03*
D45*
X112440000Y-122770000D03*
X110540000Y-122770000D03*
D14*
X129920000Y-112274999D03*
X128900000Y-112274999D03*
D42*
X134020000Y-97880000D03*
X134020000Y-96860000D03*
D12*
X117240000Y-104975000D03*
X118260000Y-104975000D03*
D20*
X111570000Y-98975000D03*
X111570000Y-98015000D03*
D50*
X147050000Y-131100000D03*
X148950000Y-131100000D03*
D53*
X127880000Y-99095000D03*
X127880000Y-100065000D03*
D54*
X137050000Y-130130000D03*
X137050000Y-130820000D03*
D14*
X129920000Y-115330000D03*
X128900000Y-115330000D03*
D45*
X131725000Y-97100000D03*
X129825000Y-97100000D03*
D12*
X113690000Y-94850000D03*
X114710000Y-94850000D03*
X114140000Y-100300000D03*
X115160000Y-100300000D03*
D55*
X127150000Y-126525000D03*
X127150000Y-127485000D03*
D20*
X149525000Y-94005000D03*
X149525000Y-93045000D03*
D56*
X152770000Y-99400000D03*
X152770000Y-97600000D03*
X151570000Y-97600000D03*
X151570000Y-99400000D03*
D16*
X151995000Y-117650000D03*
X152955000Y-117650000D03*
D45*
X111550000Y-113095000D03*
X109650000Y-113095000D03*
D24*
X125745000Y-100300000D03*
X125055000Y-100300000D03*
D14*
X124260000Y-109710000D03*
X123240000Y-109710000D03*
D17*
X113900000Y-112225000D03*
X113900000Y-115175000D03*
D13*
X135164376Y-102764376D03*
X135885624Y-103485624D03*
D54*
X140975000Y-91930000D03*
X140975000Y-92620000D03*
D20*
X154065000Y-98880000D03*
X154065000Y-97920000D03*
D21*
X133050000Y-96990000D03*
X133050000Y-98010000D03*
D15*
X150630000Y-129250000D03*
X149670000Y-129250000D03*
D55*
X119350000Y-107990000D03*
X119350000Y-108950000D03*
D57*
X132000000Y-106800001D03*
X132800000Y-106800001D03*
X133600000Y-106800001D03*
X134400000Y-106800001D03*
X135200000Y-106800001D03*
X136000000Y-106800001D03*
X136799999Y-106800001D03*
X137599999Y-106800001D03*
X138399999Y-106800001D03*
X139199999Y-106800001D03*
X139999999Y-106800001D03*
X140799999Y-106800001D03*
X141599999Y-106800001D03*
X142399999Y-106800001D03*
X143199999Y-106800001D03*
X143999999Y-106800001D03*
X144799999Y-106800001D03*
X145599998Y-106800001D03*
X146399998Y-106800001D03*
X147199998Y-106800001D03*
X147999998Y-106800001D03*
X148799998Y-106800001D03*
X132000000Y-122799999D03*
X132800000Y-122799999D03*
X133600000Y-122799999D03*
X134400000Y-122799999D03*
X135200000Y-122799999D03*
X136000000Y-122799999D03*
X136799999Y-122799999D03*
X137599999Y-122799999D03*
X138399999Y-122799999D03*
X139199999Y-122799999D03*
X139999999Y-122799999D03*
X140799999Y-122799999D03*
X141599999Y-122799999D03*
X142399999Y-122799999D03*
X143199999Y-122799999D03*
X143999999Y-122799999D03*
X144799999Y-122799999D03*
X145599998Y-122799999D03*
X146399998Y-122799999D03*
X147199998Y-122799999D03*
X147999998Y-122799999D03*
X148799998Y-122799999D03*
X132000000Y-123599999D03*
X132800000Y-123599999D03*
X133600000Y-123599999D03*
X134400000Y-123599999D03*
X135200000Y-123599999D03*
X136000000Y-123599999D03*
X136799999Y-123599999D03*
X137599999Y-123599999D03*
X138399999Y-123599999D03*
X139199999Y-123599999D03*
X139999999Y-123599999D03*
X140799999Y-123599999D03*
X141599999Y-123599999D03*
X142399999Y-123599999D03*
X143199999Y-123599999D03*
X143999999Y-123599999D03*
X144799999Y-123599999D03*
X145599998Y-123599999D03*
X146399998Y-123599999D03*
X147199998Y-123599999D03*
X147999998Y-123599999D03*
X148799998Y-123599999D03*
X132000000Y-107600001D03*
X132800000Y-107600001D03*
X133600000Y-107600001D03*
X134400000Y-107600001D03*
X135200000Y-107600001D03*
X136000000Y-107600001D03*
X136799999Y-107600001D03*
X137599999Y-107600001D03*
X138399999Y-107600001D03*
X139199999Y-107600001D03*
X139999999Y-107600001D03*
X140799999Y-107600001D03*
X141599999Y-107600001D03*
X142399999Y-107600001D03*
X143199999Y-107600001D03*
X143999999Y-107600001D03*
X144799999Y-107600001D03*
X145599998Y-107600001D03*
X146399998Y-107600001D03*
X147199998Y-107600001D03*
X147999998Y-107600001D03*
X148799998Y-107600001D03*
X132000000Y-108400001D03*
X132800000Y-108400001D03*
X133600000Y-108400001D03*
X134400000Y-108400001D03*
X135200000Y-108400001D03*
X136000000Y-108400001D03*
X136799999Y-108400001D03*
X137599999Y-108400001D03*
X138399999Y-108400001D03*
X139199999Y-108400001D03*
X139999999Y-108400001D03*
X140799999Y-108400001D03*
X141599999Y-108400001D03*
X142399999Y-108400001D03*
X143199999Y-108400001D03*
X143999999Y-108400001D03*
X144799999Y-108400001D03*
X145599998Y-108400001D03*
X146399998Y-108400001D03*
X147199998Y-108400001D03*
X147999998Y-108400001D03*
X148799998Y-108400001D03*
X132000000Y-109200001D03*
X132800000Y-109200001D03*
X133600000Y-109200001D03*
X134400000Y-109200001D03*
X135200000Y-109200001D03*
X136000000Y-109200001D03*
X136799999Y-109200001D03*
X137599999Y-109200001D03*
X138399999Y-109200001D03*
X139199999Y-109200001D03*
X139999999Y-109200001D03*
X140799999Y-109200001D03*
X141599999Y-109200001D03*
X142399999Y-109200001D03*
X143199999Y-109200001D03*
X143999999Y-109200001D03*
X144799999Y-109200001D03*
X145599998Y-109200001D03*
X146399998Y-109200001D03*
X147199998Y-109200001D03*
X147999998Y-109200001D03*
X148799998Y-109200001D03*
X132000000Y-110000001D03*
X132800000Y-110000001D03*
X133600000Y-110000001D03*
X134400000Y-110000001D03*
X135200000Y-110000001D03*
X136000000Y-110000001D03*
X136799999Y-110000001D03*
X137599999Y-110000001D03*
X138399999Y-110000001D03*
X139199999Y-110000001D03*
X139999999Y-110000001D03*
X140799999Y-110000001D03*
X141599999Y-110000001D03*
X142399999Y-110000001D03*
X143199999Y-110000001D03*
X143999999Y-110000001D03*
X144799999Y-110000001D03*
X145599998Y-110000001D03*
X146399998Y-110000001D03*
X147199998Y-110000001D03*
X147999998Y-110000001D03*
X148799998Y-110000001D03*
X132000000Y-110800001D03*
X132800000Y-110800001D03*
X133600000Y-110800001D03*
X134400000Y-110800001D03*
X135200000Y-110800001D03*
X136000000Y-110800001D03*
X136799999Y-110800001D03*
X137599999Y-110800001D03*
X138399999Y-110800001D03*
X139199999Y-110800001D03*
X139999999Y-110800001D03*
X140799999Y-110800001D03*
X141599999Y-110800001D03*
X142399999Y-110800001D03*
X143199999Y-110800001D03*
X143999999Y-110800001D03*
X144799999Y-110800001D03*
X145599998Y-110800001D03*
X146399998Y-110800001D03*
X147199998Y-110800001D03*
X147999998Y-110800001D03*
X148799998Y-110800001D03*
X132000000Y-111600000D03*
X132800000Y-111600000D03*
X133600000Y-111600000D03*
X134400000Y-111600000D03*
X135200000Y-111600000D03*
X136000000Y-111600000D03*
X136799999Y-111600000D03*
X137599999Y-111600000D03*
X138399999Y-111600000D03*
X139199999Y-111600000D03*
X139999999Y-111600000D03*
X140799999Y-111600000D03*
X141599999Y-111600000D03*
X142399999Y-111600000D03*
X143199999Y-111600000D03*
X143999999Y-111600000D03*
X144799999Y-111600000D03*
X145599998Y-111600000D03*
X146399998Y-111600000D03*
X147199998Y-111600000D03*
X147999998Y-111600000D03*
X148799998Y-111600000D03*
X132000000Y-112400000D03*
X132800000Y-112400000D03*
X133600000Y-112400000D03*
X134400000Y-112400000D03*
X135200000Y-112400000D03*
X136000000Y-112400000D03*
X136799999Y-112400000D03*
X137599999Y-112400000D03*
X138399999Y-112400000D03*
X139199999Y-112400000D03*
X139999999Y-112400000D03*
X140799999Y-112400000D03*
X141599999Y-112400000D03*
X142399999Y-112400000D03*
X143199999Y-112400000D03*
X143999999Y-112400000D03*
X144799999Y-112400000D03*
X145599998Y-112400000D03*
X146399998Y-112400000D03*
X147199998Y-112400000D03*
X147999998Y-112400000D03*
X148799998Y-112400000D03*
X132000000Y-113200000D03*
X132800000Y-113200000D03*
X133600000Y-113200000D03*
X134400000Y-113200000D03*
X135200000Y-113200000D03*
X136000000Y-113200000D03*
X136799999Y-113200000D03*
X137599999Y-113200000D03*
X138399999Y-113200000D03*
X139199999Y-113200000D03*
X139999999Y-113200000D03*
X140799999Y-113200000D03*
X141599999Y-113200000D03*
X142399999Y-113200000D03*
X143199999Y-113200000D03*
X143999999Y-113200000D03*
X144799999Y-113200000D03*
X145599998Y-113200000D03*
X146399998Y-113200000D03*
X147199998Y-113200000D03*
X147999998Y-113200000D03*
X148799998Y-113200000D03*
X132000000Y-114000000D03*
X132800000Y-114000000D03*
X133600000Y-114000000D03*
X134400000Y-114000000D03*
X135200000Y-114000000D03*
X136000000Y-114000000D03*
X136799999Y-114000000D03*
X137599999Y-114000000D03*
X138399999Y-114000000D03*
X139199999Y-114000000D03*
X139999999Y-114000000D03*
X140799999Y-114000000D03*
X141599999Y-114000000D03*
X142399999Y-114000000D03*
X143199999Y-114000000D03*
X143999999Y-114000000D03*
X144799999Y-114000000D03*
X145599998Y-114000000D03*
X146399998Y-114000000D03*
X147199998Y-114000000D03*
X147999998Y-114000000D03*
X148799998Y-114000000D03*
X132000000Y-114800000D03*
X132800000Y-114800000D03*
X133600000Y-114800000D03*
X134400000Y-114800000D03*
X135200000Y-114800000D03*
X136000000Y-114800000D03*
X136799999Y-114800000D03*
X137599999Y-114800000D03*
X138399999Y-114800000D03*
X139199999Y-114800000D03*
X139999999Y-114800000D03*
X140799999Y-114800000D03*
X141599999Y-114800000D03*
X142399999Y-114800000D03*
X143199999Y-114800000D03*
X143999999Y-114800000D03*
X144799999Y-114800000D03*
X145599998Y-114800000D03*
X146399998Y-114800000D03*
X147199998Y-114800000D03*
X147999998Y-114800000D03*
X148799998Y-114800000D03*
X132000000Y-115600000D03*
X132800000Y-115600000D03*
X133600000Y-115600000D03*
X134400000Y-115600000D03*
X135200000Y-115600000D03*
X136000000Y-115600000D03*
X136799999Y-115600000D03*
X137599999Y-115600000D03*
X138399999Y-115600000D03*
X139199999Y-115600000D03*
X139999999Y-115600000D03*
X140799999Y-115600000D03*
X141599999Y-115600000D03*
X142399999Y-115600000D03*
X143199999Y-115600000D03*
X143999999Y-115600000D03*
X144799999Y-115600000D03*
X145599998Y-115600000D03*
X146399998Y-115600000D03*
X147199998Y-115600000D03*
X147999998Y-115600000D03*
X148799998Y-115600000D03*
X132000000Y-116400000D03*
X132800000Y-116400000D03*
X133600000Y-116400000D03*
X134400000Y-116400000D03*
X135200000Y-116400000D03*
X136000000Y-116400000D03*
X136799999Y-116400000D03*
X137599999Y-116400000D03*
X138399999Y-116400000D03*
X139199999Y-116400000D03*
X139999999Y-116400000D03*
X140799999Y-116400000D03*
X141599999Y-116400000D03*
X142399999Y-116400000D03*
X143199999Y-116400000D03*
X143999999Y-116400000D03*
X144799999Y-116400000D03*
X145599998Y-116400000D03*
X146399998Y-116400000D03*
X147199998Y-116400000D03*
X147999998Y-116400000D03*
X148799998Y-116400000D03*
X132000000Y-117200000D03*
X132800000Y-117200000D03*
X133600000Y-117200000D03*
X134400000Y-117200000D03*
X135200000Y-117200000D03*
X136000000Y-117200000D03*
X136799999Y-117200000D03*
X137599999Y-117200000D03*
X138399999Y-117200000D03*
X139199999Y-117200000D03*
X139999999Y-117200000D03*
X140799999Y-117200000D03*
X141599999Y-117200000D03*
X142399999Y-117200000D03*
X143199999Y-117200000D03*
X143999999Y-117200000D03*
X144799999Y-117200000D03*
X145599998Y-117200000D03*
X146399998Y-117200000D03*
X147199998Y-117200000D03*
X147999998Y-117200000D03*
X148799998Y-117200000D03*
X132000000Y-118000000D03*
X132800000Y-118000000D03*
X133600000Y-118000000D03*
X134400000Y-118000000D03*
X135200000Y-118000000D03*
X136000000Y-118000000D03*
X136799999Y-118000000D03*
X137599999Y-118000000D03*
X138399999Y-118000000D03*
X139199999Y-118000000D03*
X139999999Y-118000000D03*
X140799999Y-118000000D03*
X141599999Y-118000000D03*
X142399999Y-118000000D03*
X143199999Y-118000000D03*
X143999999Y-118000000D03*
X144799999Y-118000000D03*
X145599998Y-118000000D03*
X146399998Y-118000000D03*
X147199998Y-118000000D03*
X147999998Y-118000000D03*
X148799998Y-118000000D03*
X132000000Y-118800000D03*
X132800000Y-118800000D03*
X133600000Y-118800000D03*
X134400000Y-118800000D03*
X135200000Y-118800000D03*
X136000000Y-118800000D03*
X136799999Y-118800000D03*
X137599999Y-118800000D03*
X138399999Y-118800000D03*
X139199999Y-118800000D03*
X139999999Y-118800000D03*
X140799999Y-118800000D03*
X141599999Y-118800000D03*
X142399999Y-118800000D03*
X143199999Y-118800000D03*
X143999999Y-118800000D03*
X144799999Y-118800000D03*
X145599998Y-118800000D03*
X146399998Y-118800000D03*
X147199998Y-118800000D03*
X147999998Y-118800000D03*
X148799998Y-118800000D03*
X132000000Y-119600000D03*
X132800000Y-119600000D03*
X133600000Y-119600000D03*
X134400000Y-119600000D03*
X135200000Y-119600000D03*
X136000000Y-119600000D03*
X136799999Y-119600000D03*
X137599999Y-119600000D03*
X138399999Y-119600000D03*
X139199999Y-119600000D03*
X139999999Y-119600000D03*
X140799999Y-119600000D03*
X141599999Y-119600000D03*
X142399999Y-119600000D03*
X143199999Y-119600000D03*
X143999999Y-119600000D03*
X144799999Y-119600000D03*
X145599998Y-119600000D03*
X146399998Y-119600000D03*
X147199998Y-119600000D03*
X147999998Y-119600000D03*
X148799998Y-119600000D03*
X132000000Y-120399999D03*
X132800000Y-120399999D03*
X133600000Y-120399999D03*
X134400000Y-120399999D03*
X135200000Y-120399999D03*
X136000000Y-120399999D03*
X136799999Y-120399999D03*
X137599999Y-120399999D03*
X138399999Y-120399999D03*
X139199999Y-120399999D03*
X139999999Y-120399999D03*
X140799999Y-120399999D03*
X141599999Y-120399999D03*
X142399999Y-120399999D03*
X143199999Y-120399999D03*
X143999999Y-120399999D03*
X144799999Y-120399999D03*
X145599998Y-120399999D03*
X146399998Y-120399999D03*
X147199998Y-120399999D03*
X147999998Y-120399999D03*
X148799998Y-120399999D03*
X132000000Y-121199999D03*
X132800000Y-121199999D03*
X133600000Y-121199999D03*
X134400000Y-121199999D03*
X135200000Y-121199999D03*
X136000000Y-121199999D03*
X136799999Y-121199999D03*
X137599999Y-121199999D03*
X138399999Y-121199999D03*
X139199999Y-121199999D03*
X139999999Y-121199999D03*
X140799999Y-121199999D03*
X141599999Y-121199999D03*
X142399999Y-121199999D03*
X143199999Y-121199999D03*
X143999999Y-121199999D03*
X144799999Y-121199999D03*
X145599998Y-121199999D03*
X146399998Y-121199999D03*
X147199998Y-121199999D03*
X147999998Y-121199999D03*
X148799998Y-121199999D03*
X132000000Y-121999999D03*
X132800000Y-121999999D03*
X133600000Y-121999999D03*
X134400000Y-121999999D03*
X135200000Y-121999999D03*
X136000000Y-121999999D03*
X136799999Y-121999999D03*
X137599999Y-121999999D03*
X138399999Y-121999999D03*
X139199999Y-121999999D03*
X139999999Y-121999999D03*
X140799999Y-121999999D03*
X141599999Y-121999999D03*
X142399999Y-121999999D03*
X143199999Y-121999999D03*
X143999999Y-121999999D03*
X144799999Y-121999999D03*
X145599998Y-121999999D03*
X146399998Y-121999999D03*
X147199998Y-121999999D03*
X147999998Y-121999999D03*
X148799998Y-121999999D03*
D42*
X138400000Y-98910000D03*
X138400000Y-97890000D03*
D14*
X129920000Y-111270000D03*
X128900000Y-111270000D03*
X118260000Y-104000000D03*
X117240000Y-104000000D03*
D42*
X108250000Y-102520000D03*
X108250000Y-101500000D03*
D12*
X113290000Y-97100000D03*
X114310000Y-97100000D03*
D58*
X109377499Y-117882500D03*
D59*
X109177499Y-118507500D03*
X109177499Y-119007502D03*
X109177499Y-119507501D03*
X109177499Y-120007500D03*
X109177499Y-120507502D03*
D60*
X109377499Y-121132502D03*
D61*
X110002499Y-121332501D03*
X110502500Y-121332501D03*
X111002500Y-121332501D03*
X111502501Y-121332501D03*
D62*
X112127499Y-121132502D03*
D59*
X112327501Y-120507502D03*
X112327501Y-120007500D03*
X112327501Y-119507501D03*
X112327501Y-119007502D03*
X112327501Y-118507500D03*
D63*
X112127499Y-117882503D03*
D61*
X111502501Y-117682501D03*
X111002500Y-117682501D03*
X110502500Y-117682501D03*
X110002499Y-117682501D03*
D64*
X110752500Y-119807500D03*
D21*
X108247500Y-119127504D03*
X108247500Y-120147504D03*
D22*
X117930000Y-108675000D03*
X117930000Y-107985000D03*
D55*
X131800000Y-98495000D03*
X131800000Y-99455000D03*
D21*
X115140000Y-105020000D03*
X115140000Y-106040000D03*
D14*
X118273650Y-101000000D03*
X117253650Y-101000000D03*
D42*
X116060000Y-109990000D03*
X116060000Y-108970000D03*
D24*
X116770000Y-91775000D03*
X116080000Y-91775000D03*
D20*
X141470000Y-98070000D03*
X141470000Y-97110000D03*
D14*
X118385000Y-109775000D03*
X117365000Y-109775000D03*
M02*
